<svg xmlns="http://www.w3.org/2000/svg" xmlns:xlink="http://www.w3.org/1999/xlink" width="300px" height="200px">
  <defs>
   <path id="guy" d="M 5 3 A 1 1 0 0 0 10 3 A 1 1 0 0 0 5 3 Z M 4 6 L 11 6 C 12 6 13 7 13 8 L 13 13 C 13 15 11 15 11 13 L 11 10 C 11 9 10 9 10 10 L 10 25 C 10 27 8 27 8 25 L 8 17 C 8 16 7 16 7 17 L 7 25 C 7 27 5 27 5 25 L 5 10 C 5 9 4 9 4 10 L 4 13 C 4 15 2 15 2 13 L 2 8 C 2 6 3 6 4 6 Z" stroke="black" stroke-width="0.1"/>
  </defs>
  <use xlink:href="#guy" fill="#730D51" x="0" y="0" transform="scale(2)"/>
  <use xlink:href="#guy" fill="#B82979" x="20" y="0" transform="scale(2)"/>
  <use xlink:href="#guy" fill="#CC659D" x="45" y="0" transform="scale(2)"/>
  <use xlink:href="#guy" fill="#913E71" x="65" y="1" transform="scale(2)"/>
  <use xlink:href="#guy" fill="#913E71" x="95" y="0" transform="scale(2)"/>
  <use xlink:href="#guy" fill="#913E71" x="80" y="0" transform="scale(2)"/>
  <use xlink:href="#guy" fill="#913E71" x="0" y="5" transform="scale(3)"/>
  <use xlink:href="#guy" fill="#B82979" x="10" y="5" transform="scale(3)"/>
  <use xlink:href="#guy" fill="#CC659D" x="30" y="5" transform="scale(3)"/>
  <use xlink:href="#guy" fill="#CC659D" x="40" y="5" transform="scale(3)"/>
  <use xlink:href="#guy" fill="#B82979" x="60" y="5" transform="scale(3)"/>
  <use xlink:href="#guy" fill="#B82979" x="10" y="10" transform="scale(4)"/>
  <use xlink:href="#guy" fill="#CC659D" x="30" y="10" transform="scale(4)"/>
  <use xlink:href="#guy" fill="#730D51" x="20" y="10" transform="scale(4)"/>
  <use xlink:href="#guy" fill="#730D51" x="45" y="10" transform="scale(4)"/>
</svg>