<svg xmlns="http://www.w3.org/2000/svg" xmlns:xlink="http://www.w3.org/1999/xlink" width="295.563" height="518.066" viewBox="0 0 295.563 518.066">
  <defs>
    <linearGradient id="linear-gradient" y1="0.5" x2="1" y2="0.5" gradientUnits="objectBoundingBox">
      <stop offset="0.21" stop-color="#be2b7c"/>
      <stop offset="0.828" stop-color="#63003f"/>
    </linearGradient>
  </defs>
  <g id="Group_2" data-name="Group 2" transform="translate(-205.535 -205.535)">
    <g id="Component_1_1" data-name="Component 1 – 1" transform="translate(205.535 205.535)">
      <path id="Path_3" data-name="Path 3" d="M205.535,697.175H223.43c5.506,0,8.662-2.937,8.662-7.267v-.148c0-4.844-3.376-7.34-8.882-7.34H205.535v-10.2h18.629c12.112,0,19.379,6.386,19.379,16.955v.148c0,8.3-4.477,13.507-11.01,15.931l12.552,18.35H231.872L220.86,707.158H205.535ZM254.286,723.6V672.217h38.758v10.056H265.517V692.7h24.224v10.055H265.517v10.791h27.894V723.6Zm65.659-.007L299.32,672.217H311.8l13.434,36.188,13.434-36.188h12.185l-20.624,51.377Zm38.033.007V672.217h38.758v10.056H369.209V692.7h24.225v10.055H369.209v10.791H397.1V723.6Zm87.786,0-4.7-11.524H419.337l-4.7,11.524H403.113l21.871-51.4h10.728l21.87,51.4ZM430.2,685.429l-6.827,16.663h13.653ZM464.174,723.6V672.217h11.3v41.107H501.1V723.6Z" transform="translate(-205.535 -205.535)" fill="url(#linear-gradient)"/>
      <path id="Path_4" data-name="Path 4" d="M205.535,413.5H299.36c45.874,0,72.174-24.477,72.174-60.557v-1.229c0-40.361-28.131-61.159-74.01-61.159H205.535V205.535h99.937c100.931,0,161.483,53.21,161.483,141.279v1.23c0,69.125-37.31,112.546-91.748,132.743L479.8,633.7H369.7L277.947,496.679H205.535Z" transform="translate(-205.535 -205.535)" fill="url(#linear-gradient)"/>
    </g>
  </g>
</svg>
